<?xml version="1.0" encoding="UTF-8"?>
<svg width="17px" height="17px" viewBox="0 0 17 17" version="1.1" xmlns="http://www.w3.org/2000/svg" xmlns:xlink="http://www.w3.org/1999/xlink">
    <!-- Generator: Sketch 46.2 (44496) - http://www.bohemiancoding.com/sketch -->
    <title>Combined Shape</title>
    <desc>Created with Sketch.</desc>
    <defs></defs>
    <g id="Page-1" stroke="none" stroke-width="1" fill="none" fill-rule="evenodd">
        <g id="1.0b-my-labels" transform="translate(-848.000000, -45.000000)" fill="#FFFFFF">
            <g id="label-sheet" transform="translate(800.000000, 0.000000)">
                <g id="header">
                    <path d="M54.5,52 L46.5,52 L46.5,52 C45.6715729,52 45,52.6715729 45,53.5 C45,54.3284271 45.6715729,55 46.5,55 L54.5,55 L54.5,63 C54.5,63.8284271 55.1715729,64.5 56,64.5 C56.8284271,64.5 57.5,63.8284271 57.5,63 L57.5,55 L65.5,55 C66.3284271,55 67,54.3284271 67,53.5 C67,52.6715729 66.3284271,52 65.5,52 L57.5,52 L57.5,44 L57.5,44 C57.5,43.1715729 56.8284271,42.5 56,42.5 C55.1715729,42.5 54.5,43.1715729 54.5,44 L54.5,52 Z" id="Combined-Shape" transform="translate(56.000000, 54.000000) rotate(45.000000) translate(-56.000000, -54.000000) "></path>
                </g>
            </g>
        </g>
    </g>
</svg>