<?xml version="1.0" encoding="UTF-8"?>
<svg width="18px" height="17px" viewBox="0 0 18 17" version="1.1" xmlns="http://www.w3.org/2000/svg" xmlns:xlink="http://www.w3.org/1999/xlink">
    <!-- Generator: Sketch 46.2 (44496) - http://www.bohemiancoding.com/sketch -->
    <title>Combined Shape</title>
    <desc>Created with Sketch.</desc>
    <defs></defs>
    <g id="Page-1" stroke="none" stroke-width="1" fill="none" fill-rule="evenodd">
        <g id="1.1-search" transform="translate(-417.000000, -45.000000)" fill="#D4D4D4">
            <g id="header">
                <g id="search-bar" transform="translate(26.000000, 25.000000)">
                    <g id="Group-6">
                        <path d="M398.056349,26.5563492 L390.056349,26.5563492 L390.056349,26.5563492 C389.227922,26.5563492 388.556349,27.2279221 388.556349,28.0563492 C388.556349,28.8847763 389.227922,29.5563492 390.056349,29.5563492 L398.056349,29.5563492 L398.056349,37.5563492 C398.056349,38.3847763 398.727922,39.0563492 399.556349,39.0563492 C400.384776,39.0563492 401.056349,38.3847763 401.056349,37.5563492 L401.056349,29.5563492 L409.056349,29.5563492 C409.884776,29.5563492 410.556349,28.8847763 410.556349,28.0563492 C410.556349,27.2279221 409.884776,26.5563492 409.056349,26.5563492 L401.056349,26.5563492 L401.056349,18.5563492 L401.056349,18.5563492 C401.056349,17.7279221 400.384776,17.0563492 399.556349,17.0563492 C398.727922,17.0563492 398.056349,17.7279221 398.056349,18.5563492 L398.056349,26.5563492 Z" id="Combined-Shape" transform="translate(399.556349, 28.556349) rotate(45.000000) translate(-399.556349, -28.556349) "></path>
                    </g>
                </g>
            </g>
        </g>
    </g>
</svg>