<?xml version="1.0" encoding="UTF-8"?>
<svg width="6px" height="6px" viewBox="0 0 6 6" version="1.1" xmlns="http://www.w3.org/2000/svg" xmlns:xlink="http://www.w3.org/1999/xlink">
    <!-- Generator: Sketch 46.2 (44496) - http://www.bohemiancoding.com/sketch -->
    <title>Combined Shape</title>
    <desc>Created with Sketch.</desc>
    <defs></defs>
    <g id="Page-1" stroke="none" stroke-width="1" fill="none" fill-rule="evenodd">
        <g id="1.2-place-detail(with-label)" transform="translate(-118.000000, -655.000000)" fill="#32BD8C">
            <g id="label_set" transform="translate(50.000000, 625.000000)">
                <g id="label_hl" transform="translate(0.000000, 21.000000)">
                    <path d="M70.4724747,11.4724747 L67.9270202,11.4724747 L67.9270202,11.4724747 C67.6634297,11.4724747 67.4497475,11.686157 67.4497475,11.9497475 C67.4497475,12.2133379 67.6634297,12.4270202 67.9270202,12.4270202 L67.9270202,12.4270202 L70.4724747,12.4270202 L70.4724747,14.9724747 C70.4724747,15.2360652 70.686157,15.4497475 70.9497475,15.4497475 C71.2133379,15.4497475 71.4270202,15.2360652 71.4270202,14.9724747 L71.4270202,14.9724747 L71.4270202,12.4270202 L73.9724747,12.4270202 C74.2360652,12.4270202 74.4497475,12.2133379 74.4497475,11.9497475 C74.4497475,11.686157 74.2360652,11.4724747 73.9724747,11.4724747 L73.9724747,11.4724747 L71.4270202,11.4724747 L71.4270202,8.9270202 L71.4270202,8.9270202 C71.4270202,8.66342975 71.2133379,8.44974747 70.9497475,8.44974747 C70.686157,8.44974747 70.4724747,8.66342975 70.4724747,8.9270202 L70.4724747,8.9270202 L70.4724747,11.4724747 Z" id="Combined-Shape" transform="translate(70.949747, 11.949747) rotate(45.000000) translate(-70.949747, -11.949747) "></path>
                </g>
            </g>
        </g>
    </g>
</svg>